<svg width="32" height="29" viewBox="0 0 32 29" fill="none" xmlns="http://www.w3.org/2000/svg">
<path d="M7.45153 3.7953C8.19231 3.45452 15.7055 0 15.8624 0C16.0192 0 23.656 3.40448 24.4097 3.74064C24.4493 3.75832 24.4694 3.79523 24.4694 3.83864V4.05428C24.4694 4.09724 24.4497 4.13381 24.4107 4.15175C23.6719 4.49125 16.2035 7.91953 15.8899 7.91953C15.6197 7.91954 10.9074 5.82353 9.20779 5.0636V6.02215L9.28825 7.36311C9.28958 7.38523 9.29749 7.40631 9.31047 7.42428C9.3583 7.49054 9.47514 7.66354 9.48277 7.78204C9.49054 7.90273 9.4134 8.03502 9.36194 8.10885C9.33659 8.1452 9.33068 8.19281 9.34871 8.23329C9.38341 8.31115 9.43719 8.44347 9.45528 8.552C9.47827 8.68994 9.52048 9.80822 9.5337 10.1711C9.53597 10.2333 9.48611 10.2844 9.42385 10.2844H8.4165C8.3534 10.2844 8.30321 10.2321 8.30673 10.1691C8.32661 9.81324 8.38748 8.74879 8.41034 8.63449C8.43096 8.5314 8.4825 8.32008 8.50699 8.2208C8.51534 8.18696 8.50726 8.15124 8.48736 8.12262C8.43578 8.04841 8.34307 7.89362 8.35534 7.75454C8.36639 7.62932 8.45753 7.48592 8.49942 7.42587C8.5127 7.40683 8.52073 7.38457 8.52146 7.36137L8.60283 4.79258L7.45873 4.29111C7.41873 4.27357 7.3929 4.23404 7.3929 4.19037V3.89273C7.3929 3.84979 7.41252 3.81324 7.45153 3.7953Z" fill="#0051A0"/>
<path d="M15.9999 8.82698C15.8277 8.82698 11.8702 7.04437 11.0379 6.66862C10.9651 6.63574 10.8852 6.6902 10.8852 6.77012V9.76257C10.8852 9.92158 10.998 10.0571 11.1528 10.0934C13.0756 10.5452 15.8161 12.0993 15.9999 12.0993C16.1829 12.0993 18.9764 10.5579 20.7871 10.1463C20.9441 10.1106 21.0596 9.97407 21.0596 9.81308V6.69107C21.0596 6.61029 20.9781 6.55575 20.9051 6.59032C20.0747 6.9835 16.1719 8.82698 15.9999 8.82698Z" fill="#0051A0"/>
<path d="M13.58 12.5943C12.4886 12.0585 11.8379 11.7709 10.6377 11.5768C9.77843 11.4379 9.28065 11.4798 8.41034 11.4943C7.73908 11.5056 6.75779 11.5932 6.4465 11.6224C6.39019 11.6277 6.34796 11.6749 6.34796 11.7315V12.9115C6.34796 12.977 6.40452 13.0281 6.46967 13.0213C6.71014 12.9963 7.25613 12.9422 7.64038 12.9242C8.76754 12.8714 9.41896 12.8246 10.5277 13.0342C11.4821 13.2146 11.9981 13.4258 12.8926 13.8042C14.1463 14.3346 15.7249 15.5366 15.9174 15.5366C16.1099 15.5366 16.9366 14.8653 17.6223 14.4916C18.2718 14.1377 18.6376 13.9342 19.3272 13.6667C19.986 13.4112 20.3708 13.3021 21.0596 13.1442C21.8323 12.9671 22.2754 12.8853 23.067 12.8417C23.9035 12.7957 25.1316 12.9424 25.5095 12.9914C25.5722 12.9995 25.6287 12.9537 25.634 12.8907L25.7256 11.7917C25.7305 11.7331 25.6888 11.6811 25.6304 11.6742C25.1762 11.621 23.3338 11.4223 22.1045 11.5493C21.5092 11.6108 21.1763 11.6668 20.5921 11.7968C19.9816 11.9327 19.6386 12.0191 19.0522 12.2368C17.721 12.731 16.1374 14.0792 15.9174 14.0792C15.6974 14.0792 14.5508 13.0708 13.58 12.5943Z" fill="#0051A0"/>
<path d="M10.0877 13.5292C8.42959 13.2842 5.89898 13.6144 5.41284 13.6824C5.36362 13.6893 5.32656 13.7285 5.32086 13.7779L5.18255 14.9766C5.17408 15.05 5.23832 15.111 5.31111 15.0983C5.68352 15.0334 6.6908 14.8658 7.3929 14.8216C8.41129 14.7576 8.99127 14.7621 10.0052 14.8766C11.4339 15.0379 12.2471 15.2176 13.58 15.7566C14.5733 16.1582 15.6424 16.9665 15.9999 16.9665C16.3574 16.9665 17.4205 16.1461 18.3923 15.7566C19.6835 15.239 20.5052 15.0301 21.8845 14.8491C23.5706 14.628 26.0615 14.9984 26.6874 15.0996C26.7608 15.1115 26.8243 15.0491 26.8146 14.9754L26.653 13.7515C26.6464 13.7016 26.6077 13.6627 26.5577 13.6571C26.1524 13.6117 24.3705 13.4231 23.177 13.4742C21.8114 13.5327 21.0424 13.5499 19.7122 13.9692C18.1548 14.46 16.1649 15.9491 15.9174 15.9491C15.6699 15.9491 14.6998 15.1436 13.91 14.7666C12.4696 14.079 11.6667 13.7625 10.0877 13.5292Z" fill="#0051A0"/>
<path d="M1.59294 26.9665V19.7669H6.44421V21.0219H3.11511V22.7374H6.19462V23.9924H3.11511V25.7115H6.45828V26.9665H1.59294ZM9.616 27.0544C9.20587 27.0544 8.83441 26.9489 8.50161 26.738C8.17116 26.5247 7.90868 26.2118 7.71416 25.7994C7.52198 25.3846 7.42589 24.876 7.42589 24.2737C7.42589 23.655 7.5255 23.1405 7.72471 22.7304C7.92391 22.3179 8.18874 22.0098 8.51919 21.8059C8.85198 21.5996 9.21641 21.4965 9.61248 21.4965C9.91481 21.4965 10.1667 21.5481 10.3683 21.6512C10.5722 21.752 10.7362 21.8785 10.8605 22.0308C10.987 22.1808 11.0831 22.3285 11.1487 22.4738H11.1944V19.7669H12.6885V26.9665H11.212V26.1017H11.1487C11.0784 26.2517 10.9788 26.4005 10.8499 26.5482C10.7234 26.6935 10.5581 26.8142 10.3542 26.9102C10.1527 27.0063 9.90661 27.0544 9.616 27.0544ZM10.0906 25.8627C10.332 25.8627 10.5359 25.797 10.7023 25.6658C10.871 25.5322 10.9999 25.3459 11.089 25.1068C11.1804 24.8678 11.2261 24.5877 11.2261 24.2667C11.2261 23.9456 11.1815 23.6667 11.0925 23.43C11.0034 23.1933 10.8745 23.0105 10.7058 22.8816C10.537 22.7527 10.332 22.6882 10.0906 22.6882C9.8445 22.6882 9.63709 22.755 9.46835 22.8886C9.29961 23.0222 9.17189 23.2073 9.08517 23.444C8.99846 23.6807 8.9551 23.9549 8.9551 24.2667C8.9551 24.5807 8.99846 24.8584 9.08517 25.0998C9.17423 25.3389 9.30196 25.5263 9.46835 25.6623C9.63709 25.7959 9.8445 25.8627 10.0906 25.8627ZM17.3824 24.6674V21.5668H18.88V26.9665H17.4422V25.9857H17.386C17.2641 26.3021 17.0614 26.5564 16.7778 26.7485C16.4966 26.9407 16.1532 27.0368 15.7478 27.0368C15.3869 27.0368 15.0693 26.9548 14.7951 26.7907C14.5209 26.6267 14.3064 26.3935 14.1518 26.0912C13.9994 25.7888 13.9221 25.4267 13.9198 25.0049V21.5668H15.4173V24.7377C15.4197 25.0564 15.5052 25.3084 15.6739 25.4935C15.8427 25.6787 16.0688 25.7712 16.3524 25.7712C16.5329 25.7712 16.7016 25.7302 16.8586 25.6482C17.0157 25.5638 17.1422 25.4396 17.2383 25.2756C17.3367 25.1115 17.3848 24.9088 17.3824 24.6674ZM22.5176 27.072C21.9645 27.072 21.4887 26.9548 21.0903 26.7204C20.6943 26.4837 20.3896 26.1556 20.1763 25.7361C19.9654 25.3166 19.8599 24.8338 19.8599 24.2877C19.8599 23.7347 19.9666 23.2495 20.1798 22.8324C20.3954 22.4129 20.7013 22.0859 21.0974 21.8516C21.4934 21.6149 21.9645 21.4965 22.5106 21.4965C22.9816 21.4965 23.3941 21.582 23.748 21.7531C24.1019 21.9242 24.3819 22.1644 24.5882 22.4738C24.7944 22.7831 24.9081 23.1464 24.9292 23.5636H23.516C23.4761 23.2941 23.3707 23.0773 23.1996 22.9132C23.0308 22.7468 22.8094 22.6636 22.5352 22.6636C22.3031 22.6636 22.1004 22.7269 21.927 22.8535C21.7559 22.9777 21.6223 23.1593 21.5262 23.3983C21.4302 23.6374 21.3821 23.9268 21.3821 24.2667C21.3821 24.6112 21.429 24.9041 21.5227 25.1455C21.6188 25.3869 21.7536 25.5709 21.927 25.6974C22.1004 25.824 22.3031 25.8873 22.5352 25.8873C22.7062 25.8873 22.8598 25.8521 22.9957 25.7818C23.134 25.7115 23.2476 25.6095 23.3367 25.476C23.4281 25.34 23.4878 25.1771 23.516 24.9873H24.9292C24.9057 25.3998 24.7932 25.763 24.5917 26.0771C24.3925 26.3888 24.1171 26.6325 23.7656 26.8083C23.414 26.9841 22.998 27.072 22.5176 27.072ZM27.4277 27.0684C27.0832 27.0684 26.7762 27.0087 26.5067 26.8892C26.2372 26.7673 26.0239 26.588 25.8669 26.3513C25.7122 26.1122 25.6349 25.8146 25.6349 25.4584C25.6349 25.1584 25.69 24.9065 25.8001 24.7026C25.9103 24.4987 26.0602 24.3346 26.2501 24.2104C26.4399 24.0862 26.6555 23.9924 26.8969 23.9292C27.1407 23.8659 27.3961 23.8214 27.6633 23.7956C27.9773 23.7628 28.2304 23.7323 28.4226 23.7042C28.6148 23.6737 28.7542 23.6292 28.8409 23.5706C28.9277 23.512 28.971 23.4253 28.971 23.3105V23.2894C28.971 23.0667 28.9007 22.8945 28.7601 22.7726C28.6218 22.6507 28.425 22.5898 28.1695 22.5898C27.9 22.5898 27.6855 22.6496 27.5262 22.7691C27.3668 22.8863 27.2614 23.0339 27.2098 23.212L25.8247 23.0995C25.895 22.7714 26.0333 22.4878 26.2395 22.2488C26.4458 22.0074 26.7118 21.8223 27.0375 21.6934C27.3656 21.5621 27.7453 21.4965 28.1765 21.4965C28.4765 21.4965 28.7636 21.5317 29.0378 21.602C29.3144 21.6723 29.5593 21.7812 29.7725 21.9289C29.9881 22.0765 30.1581 22.2664 30.2823 22.4984C30.4065 22.7281 30.4686 23.0034 30.4686 23.3245V26.9665H29.0484V26.2177H29.0062C28.9195 26.3864 28.8034 26.5353 28.6581 26.6642C28.5128 26.7907 28.3382 26.8903 28.1343 26.963C27.9305 27.0333 27.6949 27.0684 27.4277 27.0684ZM27.8566 26.0349C28.0769 26.0349 28.2714 25.9915 28.4402 25.9048C28.6089 25.8158 28.7413 25.6963 28.8374 25.5463C28.9335 25.3963 28.9816 25.2264 28.9816 25.0365V24.4635C28.9347 24.494 28.8702 24.5221 28.7882 24.5479C28.7085 24.5713 28.6183 24.5936 28.5175 24.6147C28.4168 24.6334 28.316 24.651 28.2152 24.6674C28.1144 24.6815 28.023 24.6944 27.941 24.7061C27.7652 24.7319 27.6117 24.7729 27.4805 24.8291C27.3492 24.8854 27.2473 24.9615 27.1746 25.0576C27.102 25.1514 27.0657 25.2685 27.0657 25.4092C27.0657 25.6131 27.1395 25.7689 27.2871 25.8767C27.4371 25.9822 27.627 26.0349 27.8566 26.0349Z" fill="#0051A0"/>
</svg>
