<svg width="143" height="147" viewBox="0 0 143 147" fill="none" xmlns="http://www.w3.org/2000/svg">
<path d="M33.2996 17.8279C36.6099 16.3051 70.1847 0.867676 70.8856 0.867676C71.5865 0.867676 105.713 16.0814 109.081 17.5837C109.258 17.6627 109.348 17.8276 109.348 18.0216V18.9852C109.348 19.1772 109.26 19.3407 109.086 19.4208C105.784 20.938 72.4101 36.2581 71.0085 36.2581C69.8012 36.2581 48.7431 26.8916 41.1478 23.4956V27.7791L41.5074 33.7716C41.5133 33.8704 41.5487 33.9646 41.6067 34.0449C41.8204 34.341 42.3426 35.1141 42.3767 35.6437C42.4114 36.183 42.0667 36.7742 41.8367 37.1041C41.7234 37.2665 41.697 37.4793 41.7776 37.6602C41.9326 38.0081 42.173 38.5994 42.2538 39.0844C42.3565 39.7009 42.5452 44.6981 42.6043 46.3199C42.6144 46.5979 42.3916 46.8261 42.1134 46.8261H37.6118C37.3298 46.8261 37.1055 46.5925 37.1212 46.311C37.2101 44.7206 37.4821 39.9638 37.5842 39.4531C37.6764 38.9924 37.9067 38.048 38.0162 37.6044C38.0535 37.4532 38.0173 37.2935 37.9284 37.1656C37.6979 36.834 37.2836 36.1423 37.3385 35.5208C37.3878 34.9612 37.7951 34.3204 37.9823 34.052C38.0417 33.9669 38.0775 33.8675 38.0808 33.7638L38.4444 22.2845L33.3318 20.0436C33.153 19.9652 33.0375 19.7885 33.0375 19.5934V18.2633C33.0375 18.0714 33.1252 17.9081 33.2996 17.8279Z" fill="white"/>
<path d="M71.5 40.3133C70.7305 40.3133 53.0454 32.3472 49.3262 30.6681C49.0007 30.5211 48.6437 30.7645 48.6437 31.1216V44.4942C48.6437 45.2047 49.1478 45.8102 49.8395 45.9728C58.4323 47.9916 70.6788 54.9364 71.5 54.9364C72.3179 54.9364 84.8012 48.0482 92.893 46.209C93.5946 46.0496 94.1106 45.4393 94.1106 44.7199V30.7684C94.1106 30.4074 93.7465 30.1637 93.4203 30.3182C89.7093 32.0752 72.2685 40.3133 71.5 40.3133Z" fill="white"/>
<path d="M60.6863 57.1483C55.809 54.7543 52.9013 53.4688 47.5378 52.6016C43.6979 51.9807 41.4735 52.1679 37.5842 52.2329C34.5846 52.2831 30.1994 52.6748 28.8083 52.8053C28.5567 52.8289 28.368 53.04 28.368 53.2927V58.566C28.368 58.8587 28.6207 59.087 28.9119 59.0567C29.9865 58.9451 32.4263 58.7033 34.1435 58.6229C39.1805 58.3869 42.0915 58.1778 47.0462 59.1144C51.311 59.9206 53.6169 60.8641 57.6142 62.5551C63.2168 64.9253 70.2712 70.2968 71.1314 70.2968C71.9916 70.2968 75.6859 67.2969 78.7502 65.6272C81.6526 64.0457 83.2873 63.1359 86.3689 61.9407C89.3131 60.7989 91.0326 60.3116 94.1106 59.6059C97.5638 58.8143 99.5437 58.4491 103.081 58.2542C106.819 58.0483 112.307 58.7038 113.996 58.9228C114.276 58.9592 114.529 58.7544 114.552 58.4729L114.962 53.5619C114.984 53.2998 114.798 53.0676 114.536 53.0369C112.507 52.7989 104.274 51.9112 98.7802 52.4787C96.1198 52.7536 94.6322 53.0037 92.0216 53.5847C89.2934 54.1918 87.7603 54.5781 85.1401 55.5508C79.1911 57.7591 72.1145 63.784 71.1314 63.784C70.1483 63.784 65.0245 59.2776 60.6863 57.1483Z" fill="white"/>
<path d="M45.0801 61.3263C37.6702 60.2313 26.3616 61.7071 24.1892 62.0109C23.9692 62.0416 23.8036 62.2169 23.7781 62.4376L23.1601 67.7942C23.1222 68.1222 23.4093 68.3948 23.7346 68.3381C25.3987 68.0484 29.9 67.2992 33.0375 67.1018C37.5885 66.8155 40.1803 66.836 44.7115 67.3476C51.0957 68.0684 54.73 68.8715 60.6863 71.2799C65.1248 73.0745 69.9026 76.6867 71.5 76.6867C73.0975 76.6867 77.8482 73.0207 82.1909 71.2799C87.9611 68.9668 91.6333 68.0332 97.7971 67.2247C105.332 66.2364 116.463 67.8916 119.26 68.3441C119.588 68.3971 119.872 68.1181 119.828 67.7888L119.106 62.3195C119.077 62.0967 118.904 61.9228 118.68 61.8978C116.869 61.695 108.906 60.8523 103.573 61.0806C97.4702 61.3417 94.0337 61.419 88.0893 63.2924C81.1299 65.4858 72.2373 72.1401 71.1314 72.1401C70.0254 72.1401 65.6901 68.5408 62.1609 66.8561C55.7243 63.7833 52.1359 62.369 45.0801 61.3263Z" fill="white"/>
<path d="M7.11843 119.687V87.5137H28.7976V93.122H13.9207V100.788H27.6822V106.397H13.9207V114.078H28.8604V119.687H7.11843ZM42.9715 120.08C41.1387 120.08 39.4787 119.608 37.9916 118.666C36.5149 117.713 35.3419 116.314 34.4726 114.471C33.6139 112.617 33.1845 110.345 33.1845 107.653C33.1845 104.888 33.6296 102.59 34.5198 100.757C35.41 98.9135 36.5934 97.5363 38.0701 96.6252C39.5573 95.7036 41.1858 95.2427 42.9558 95.2427C44.3068 95.2427 45.4327 95.4732 46.3333 95.934C47.2445 96.3843 47.9776 96.9498 48.5327 97.6306C49.0982 98.3009 49.5276 98.9607 49.8209 99.61H50.0251V87.5137H56.7016V119.687H50.1036V115.822H49.8209C49.5067 116.492 49.0616 117.158 48.4855 117.817C47.92 118.467 47.1817 119.006 46.2705 119.435C45.3698 119.865 44.2702 120.08 42.9715 120.08ZM45.0923 114.754C46.171 114.754 47.0822 114.461 47.8257 113.874C48.5798 113.277 49.1558 112.445 49.5538 111.376C49.9622 110.308 50.1665 109.057 50.1665 107.622C50.1665 106.187 49.9675 104.941 49.5695 103.883C49.1715 102.825 48.5955 102.008 47.8415 101.432C47.0874 100.856 46.171 100.568 45.0923 100.568C43.9926 100.568 43.0658 100.867 42.3117 101.464C41.5576 102.061 40.9869 102.888 40.5994 103.946C40.2119 105.004 40.0181 106.229 40.0181 107.622C40.0181 109.025 40.2119 110.266 40.5994 111.345C40.9973 112.413 41.5681 113.251 42.3117 113.859C43.0658 114.455 43.9926 114.754 45.0923 114.754ZM77.6778 109.413V95.5569H84.37V119.687H77.9448V115.304H77.6935C77.1489 116.718 76.243 117.854 74.9757 118.713C73.719 119.572 72.1847 120.001 70.3728 120.001C68.76 120.001 67.3409 119.634 66.1156 118.901C64.8902 118.168 63.9319 117.126 63.2407 115.775C62.56 114.424 62.2144 112.806 62.2039 110.921V95.5569H68.8961V109.727C68.9066 111.151 69.2889 112.277 70.0429 113.104C70.797 113.932 71.8076 114.346 73.0749 114.346C73.8813 114.346 74.6354 114.162 75.337 113.796C76.0387 113.419 76.6043 112.864 77.0337 112.13C77.4735 111.397 77.6882 110.491 77.6778 109.413ZM100.625 120.158C98.1538 120.158 96.0278 119.634 94.2474 118.587C92.4775 117.529 91.116 116.063 90.1629 114.188C89.2203 112.314 88.7491 110.156 88.7491 107.716C88.7491 105.244 89.2256 103.077 90.1786 101.212C91.1421 99.3377 92.5089 97.8767 94.2788 96.8294C96.0488 95.7716 98.1538 95.2427 100.594 95.2427C102.699 95.2427 104.542 95.625 106.124 96.3895C107.705 97.1541 108.957 98.2276 109.878 99.61C110.8 100.992 111.308 102.616 111.402 104.48H105.087C104.909 103.276 104.438 102.307 103.673 101.574C102.919 100.83 101.929 100.458 100.704 100.458C99.6672 100.458 98.7613 100.741 97.9863 101.307C97.2217 101.862 96.6248 102.673 96.1954 103.742C95.766 104.81 95.5513 106.103 95.5513 107.622C95.5513 109.161 95.7607 110.471 96.1797 111.549C96.6091 112.628 97.2113 113.45 97.9863 114.016C98.7613 114.581 99.6672 114.864 100.704 114.864C101.469 114.864 102.155 114.707 102.762 114.393C103.38 114.078 103.888 113.623 104.286 113.026C104.694 112.418 104.961 111.691 105.087 110.842H111.402C111.297 112.686 110.795 114.309 109.894 115.712C109.004 117.105 107.773 118.194 106.202 118.98C104.631 119.765 102.772 120.158 100.625 120.158ZM122.568 120.142C121.028 120.142 119.656 119.875 118.452 119.341C117.247 118.797 116.294 117.995 115.593 116.938C114.901 115.869 114.556 114.539 114.556 112.947C114.556 111.607 114.802 110.481 115.294 109.57C115.786 108.659 116.457 107.926 117.305 107.37C118.153 106.815 119.117 106.397 120.196 106.114C121.285 105.831 122.426 105.632 123.62 105.517C125.024 105.37 126.155 105.234 127.014 105.108C127.872 104.972 128.495 104.773 128.883 104.511C129.27 104.25 129.464 103.862 129.464 103.349V103.255C129.464 102.26 129.15 101.49 128.522 100.945C127.904 100.401 127.024 100.128 125.882 100.128C124.678 100.128 123.72 100.395 123.008 100.93C122.295 101.453 121.824 102.113 121.594 102.909L115.404 102.406C115.718 100.94 116.336 99.6728 117.258 98.6046C118.18 97.5259 119.368 96.6985 120.824 96.1225C122.29 95.536 123.987 95.2427 125.914 95.2427C127.254 95.2427 128.537 95.3998 129.763 95.714C130.999 96.0282 132.093 96.5152 133.046 97.175C134.01 97.8348 134.769 98.6831 135.324 99.72C135.879 100.746 136.156 101.977 136.156 103.412V119.687H129.81V116.341H129.621C129.234 117.095 128.715 117.76 128.066 118.336C127.417 118.901 126.637 119.346 125.725 119.671C124.814 119.985 123.762 120.142 122.568 120.142ZM124.484 115.524C125.469 115.524 126.338 115.33 127.092 114.942C127.846 114.545 128.438 114.01 128.867 113.34C129.297 112.67 129.511 111.911 129.511 111.062V108.502C129.302 108.638 129.014 108.763 128.647 108.879C128.291 108.983 127.888 109.083 127.438 109.177C126.987 109.261 126.537 109.339 126.087 109.413C125.636 109.476 125.228 109.533 124.861 109.586C124.076 109.701 123.39 109.884 122.803 110.135C122.217 110.387 121.761 110.727 121.437 111.156C121.112 111.575 120.95 112.099 120.95 112.727C120.95 113.639 121.28 114.335 121.939 114.817C122.61 115.288 123.458 115.524 124.484 115.524Z" fill="white"/>
<path d="M3.03007 144.248V137.614H7.18938V138.475H4.03102V140.497H6.97234V141.355H4.03102V143.386H7.22825V144.248H3.03007ZM10.3113 144.345C9.90962 144.345 9.55113 144.242 9.23583 144.037C8.9227 143.83 8.67651 143.535 8.49726 143.153C8.32018 142.768 8.23164 142.307 8.23164 141.77C8.23164 141.232 8.32126 140.772 8.5005 140.39C8.68191 140.007 8.93026 139.715 9.24555 139.512C9.56085 139.309 9.91825 139.207 10.3178 139.207C10.6266 139.207 10.8749 139.259 11.0628 139.363C11.2529 139.464 11.3997 139.583 11.5034 139.719C11.6092 139.855 11.6913 139.975 11.7496 140.079H11.8079V137.614H12.7764V144.248H11.8305V143.473H11.7496C11.6913 143.579 11.607 143.7 11.4969 143.836C11.3889 143.972 11.2399 144.091 11.0499 144.193C10.8598 144.294 10.6136 144.345 10.3113 144.345ZM10.5251 143.519C10.8037 143.519 11.0391 143.445 11.2313 143.299C11.4256 143.15 11.5725 142.943 11.6718 142.68C11.7733 142.416 11.8241 142.11 11.8241 141.76C11.8241 141.414 11.7744 141.112 11.6751 140.853C11.5757 140.594 11.4299 140.392 11.2377 140.247C11.0455 140.102 10.808 140.03 10.5251 140.03C10.2336 140.03 9.9906 140.106 9.79624 140.257C9.60188 140.408 9.45503 140.614 9.35569 140.876C9.25851 141.137 9.20992 141.432 9.20992 141.76C9.20992 142.092 9.25959 142.392 9.35893 142.657C9.45827 142.923 9.60512 143.133 9.79948 143.289C9.996 143.442 10.2379 143.519 10.5251 143.519ZM17.3107 142.184V139.272H18.2825V144.248H17.3301V143.386H17.2783C17.1638 143.652 16.9803 143.873 16.7276 144.05C16.4771 144.225 16.1651 144.312 15.7914 144.312C15.4718 144.312 15.1889 144.242 14.9427 144.102C14.6987 143.959 14.5065 143.749 14.3661 143.47C14.2279 143.192 14.1588 142.847 14.1588 142.437V139.272H15.1274V142.32C15.1274 142.659 15.2213 142.929 15.4092 143.13C15.5971 143.331 15.8411 143.431 16.1413 143.431C16.3227 143.431 16.503 143.386 16.6823 143.295C16.8637 143.205 17.0138 143.067 17.1325 142.884C17.2535 142.7 17.3129 142.467 17.3107 142.184ZM21.6798 144.348C21.1982 144.348 20.7835 144.239 20.4359 144.021C20.0903 143.801 19.8247 143.497 19.639 143.111C19.4533 142.724 19.3604 142.281 19.3604 141.783C19.3604 141.277 19.4554 140.831 19.6455 140.445C19.8355 140.056 20.1033 139.753 20.4488 139.534C20.7943 139.316 21.2014 139.207 21.67 139.207C22.048 139.207 22.3849 139.277 22.6807 139.418C22.9766 139.556 23.2152 139.75 23.3966 140.001C23.5802 140.251 23.6892 140.544 23.7238 140.879H22.7811C22.7293 140.646 22.6105 140.445 22.4248 140.276C22.2412 140.108 21.9951 140.024 21.6862 140.024C21.4163 140.024 21.1798 140.095 20.9768 140.237C20.776 140.378 20.6194 140.579 20.5071 140.84C20.3948 141.099 20.3387 141.406 20.3387 141.76C20.3387 142.123 20.3937 142.436 20.5039 142.699C20.614 142.963 20.7695 143.167 20.9703 143.312C21.1733 143.456 21.412 143.529 21.6862 143.529C21.8698 143.529 22.0361 143.495 22.1851 143.428C22.3363 143.359 22.4626 143.261 22.5641 143.133C22.6678 143.006 22.7401 142.853 22.7811 142.673H23.7238C23.6892 142.995 23.5845 143.282 23.4096 143.535C23.2346 143.788 23.0003 143.986 22.7066 144.131C22.4151 144.276 22.0728 144.348 21.6798 144.348ZM26.2075 144.358C25.8923 144.358 25.6072 144.3 25.3524 144.183C25.0975 144.064 24.8956 143.892 24.7466 143.668C24.5998 143.443 24.5263 143.168 24.5263 142.842C24.5263 142.561 24.5803 142.33 24.6883 142.149C24.7963 141.967 24.942 141.824 25.1256 141.718C25.3092 141.612 25.5143 141.532 25.7411 141.478C25.9678 141.424 26.1989 141.383 26.4343 141.355C26.7323 141.32 26.9742 141.292 27.1599 141.271C27.3456 141.247 27.4806 141.209 27.5648 141.157C27.6491 141.106 27.6912 141.021 27.6912 140.905V140.882C27.6912 140.599 27.6113 140.38 27.4515 140.224C27.2938 140.069 27.0584 139.991 26.7453 139.991C26.4192 139.991 26.1622 140.064 25.9743 140.208C25.7886 140.351 25.6601 140.509 25.5888 140.684L24.6786 140.477C24.7866 140.175 24.9442 139.931 25.1515 139.745C25.361 139.557 25.6018 139.421 25.8739 139.337C26.146 139.25 26.4321 139.207 26.7323 139.207C26.931 139.207 27.1416 139.231 27.364 139.279C27.5886 139.324 27.7981 139.408 27.9924 139.531C28.1889 139.654 28.3498 139.83 28.4751 140.059C28.6003 140.286 28.663 140.581 28.663 140.944V144.248H27.7171V143.567H27.6782C27.6156 143.693 27.5216 143.816 27.3964 143.937C27.2711 144.058 27.1102 144.158 26.9137 144.238C26.7172 144.318 26.4818 144.358 26.2075 144.358ZM26.4181 143.58C26.6859 143.58 26.9148 143.527 27.1048 143.422C27.297 143.316 27.4428 143.178 27.5422 143.007C27.6437 142.834 27.6944 142.65 27.6944 142.453V141.812C27.6599 141.846 27.5929 141.879 27.4936 141.909C27.3964 141.937 27.2852 141.962 27.1599 141.983C27.0347 142.003 26.9126 142.021 26.7939 142.038C26.6751 142.054 26.5758 142.067 26.4958 142.077C26.308 142.101 26.1363 142.141 25.9808 142.197C25.8275 142.253 25.7044 142.334 25.6115 142.44C25.5208 142.544 25.4755 142.682 25.4755 142.855C25.4755 143.094 25.564 143.276 25.7411 143.399C25.9182 143.52 26.1438 143.58 26.4181 143.58ZM32.2756 139.272V140.049H29.5578V139.272H32.2756ZM30.2867 138.08H31.2552V142.787C31.2552 142.975 31.2833 143.116 31.3395 143.211C31.3956 143.304 31.468 143.368 31.5565 143.402C31.6472 143.435 31.7455 143.451 31.8513 143.451C31.929 143.451 31.9971 143.445 32.0554 143.435C32.1137 143.424 32.159 143.415 32.1914 143.409L32.3663 144.209C32.3102 144.23 32.2303 144.252 32.1266 144.274C32.023 144.297 31.8934 144.31 31.7379 144.312C31.4831 144.317 31.2455 144.271 31.0253 144.176C30.805 144.081 30.6268 143.935 30.4908 143.736C30.3547 143.537 30.2867 143.288 30.2867 142.988V138.08ZM33.3471 144.248V139.272H34.3156V144.248H33.3471ZM33.8362 138.504C33.6677 138.504 33.5231 138.448 33.4021 138.336C33.2833 138.221 33.224 138.085 33.224 137.928C33.224 137.768 33.2833 137.632 33.4021 137.52C33.5231 137.405 33.6677 137.348 33.8362 137.348C34.0046 137.348 34.1482 137.405 34.267 137.52C34.388 137.632 34.4484 137.768 34.4484 137.928C34.4484 138.085 34.388 138.221 34.267 138.336C34.1482 138.448 34.0046 138.504 33.8362 138.504ZM37.7145 144.348C37.248 144.348 36.8409 144.241 36.4933 144.027C36.1456 143.814 35.8756 143.515 35.6834 143.13C35.4912 142.746 35.3951 142.297 35.3951 141.783C35.3951 141.266 35.4912 140.815 35.6834 140.428C35.8756 140.042 36.1456 139.742 36.4933 139.528C36.8409 139.314 37.248 139.207 37.7145 139.207C38.181 139.207 38.588 139.314 38.9357 139.528C39.2834 139.742 39.5534 140.042 39.7456 140.428C39.9378 140.815 40.0339 141.266 40.0339 141.783C40.0339 142.297 39.9378 142.746 39.7456 143.13C39.5534 143.515 39.2834 143.814 38.9357 144.027C38.588 144.241 38.181 144.348 37.7145 144.348ZM37.7177 143.535C38.0201 143.535 38.2706 143.455 38.4693 143.295C38.6679 143.136 38.8148 142.923 38.9098 142.657C39.007 142.392 39.0556 142.099 39.0556 141.779C39.0556 141.462 39.007 141.17 38.9098 140.905C38.8148 140.637 38.6679 140.422 38.4693 140.26C38.2706 140.098 38.0201 140.017 37.7177 140.017C37.4132 140.017 37.1606 140.098 36.9597 140.26C36.761 140.422 36.6131 140.637 36.5159 140.905C36.4209 141.17 36.3734 141.462 36.3734 141.779C36.3734 142.099 36.4209 142.392 36.5159 142.657C36.6131 142.923 36.761 143.136 36.9597 143.295C37.1606 143.455 37.4132 143.535 37.7177 143.535ZM42.0836 141.293V144.248H41.115V139.272H42.0447V140.082H42.1062C42.2207 139.818 42.3999 139.607 42.644 139.447C42.8901 139.287 43.2 139.207 43.5736 139.207C43.9127 139.207 44.2096 139.279 44.4645 139.421C44.7193 139.561 44.9169 139.771 45.0573 140.049C45.1976 140.328 45.2678 140.673 45.2678 141.083V144.248H44.2993V141.199C44.2993 140.839 44.2053 140.557 44.0174 140.354C43.8296 140.149 43.5715 140.046 43.2432 140.046C43.0186 140.046 42.8189 140.095 42.644 140.192C42.4712 140.289 42.3341 140.432 42.2326 140.62C42.1332 140.805 42.0836 141.03 42.0836 141.293ZM49.0587 137.614H50.2734L52.3855 142.771H52.4632L54.5753 137.614H55.79V144.248H54.8376V139.447H54.7761L52.8195 144.238H52.0291L50.0726 139.444H50.011V144.248H49.0587V137.614ZM58.6155 144.358C58.3002 144.358 58.0152 144.3 57.7603 144.183C57.5055 144.064 57.3036 143.892 57.1546 143.668C57.0077 143.443 56.9343 143.168 56.9343 142.842C56.9343 142.561 56.9883 142.33 57.0963 142.149C57.2042 141.967 57.35 141.824 57.5336 141.718C57.7171 141.612 57.9223 141.532 58.1491 141.478C58.3758 141.424 58.6069 141.383 58.8423 141.355C59.1403 141.32 59.3822 141.292 59.5679 141.271C59.7536 141.247 59.8886 141.209 59.9728 141.157C60.057 141.106 60.0991 141.021 60.0991 140.905V140.882C60.0991 140.599 60.0192 140.38 59.8594 140.224C59.7018 140.069 59.4664 139.991 59.1533 139.991C58.8272 139.991 58.5702 140.064 58.3823 140.208C58.1966 140.351 58.0681 140.509 57.9968 140.684L57.0866 140.477C57.1945 140.175 57.3522 139.931 57.5595 139.745C57.769 139.557 58.0098 139.421 58.2819 139.337C58.554 139.25 58.8401 139.207 59.1403 139.207C59.339 139.207 59.5495 139.231 59.772 139.279C59.9966 139.324 60.206 139.408 60.4004 139.531C60.5969 139.654 60.7578 139.83 60.8831 140.059C61.0083 140.286 61.0709 140.581 61.0709 140.944V144.248H60.1251V143.567H60.0862C60.0236 143.693 59.9296 143.816 59.8044 143.937C59.6791 144.058 59.5182 144.158 59.3217 144.238C59.1252 144.318 58.8898 144.358 58.6155 144.358ZM58.8261 143.58C59.0939 143.58 59.3228 143.527 59.5128 143.422C59.705 143.316 59.8508 143.178 59.9501 143.007C60.0516 142.834 60.1024 142.65 60.1024 142.453V141.812C60.0678 141.846 60.0009 141.879 59.9015 141.909C59.8044 141.937 59.6931 141.962 59.5679 141.983C59.4426 142.003 59.3206 142.021 59.2018 142.038C59.0831 142.054 58.9837 142.067 58.9038 142.077C58.7159 142.101 58.5443 142.141 58.3888 142.197C58.2354 142.253 58.1123 142.334 58.0195 142.44C57.9288 142.544 57.8834 142.682 57.8834 142.855C57.8834 143.094 57.972 143.276 58.1491 143.399C58.3261 143.52 58.5518 143.58 58.8261 143.58ZM63.3296 141.293V144.248H62.361V139.272H63.2907V140.082H63.3522C63.4667 139.818 63.6459 139.607 63.89 139.447C64.1362 139.287 64.4461 139.207 64.8197 139.207C65.1587 139.207 65.4557 139.279 65.7105 139.421C65.9653 139.561 66.1629 139.771 66.3033 140.049C66.4437 140.328 66.5138 140.673 66.5138 141.083V144.248H65.5453V141.199C65.5453 140.839 65.4513 140.557 65.2635 140.354C65.0756 140.149 64.8175 140.046 64.4893 140.046C64.2647 140.046 64.0649 140.095 63.89 140.192C63.7172 140.289 63.5801 140.432 63.4786 140.62C63.3792 140.805 63.3296 141.03 63.3296 141.293ZM69.2608 144.358C68.9455 144.358 68.6604 144.3 68.4056 144.183C68.1508 144.064 67.9489 143.892 67.7999 143.668C67.653 143.443 67.5796 143.168 67.5796 142.842C67.5796 142.561 67.6336 142.33 67.7416 142.149C67.8495 141.967 67.9953 141.824 68.1789 141.718C68.3624 141.612 68.5676 141.532 68.7943 141.478C69.0211 141.424 69.2522 141.383 69.4876 141.355C69.7856 141.32 70.0274 141.292 70.2132 141.271C70.3989 141.247 70.5339 141.209 70.6181 141.157C70.7023 141.106 70.7444 141.021 70.7444 140.905V140.882C70.7444 140.599 70.6645 140.38 70.5047 140.224C70.3471 140.069 70.1117 139.991 69.7985 139.991C69.4724 139.991 69.2155 140.064 69.0276 140.208C68.8419 140.351 68.7134 140.509 68.6421 140.684L67.7318 140.477C67.8398 140.175 67.9975 139.931 68.2048 139.745C68.4143 139.557 68.655 139.421 68.9272 139.337C69.1993 139.25 69.4854 139.207 69.7856 139.207C69.9843 139.207 70.1948 139.231 70.4172 139.279C70.6418 139.324 70.8513 139.408 71.0457 139.531C71.2422 139.654 71.4031 139.83 71.5283 140.059C71.6536 140.286 71.7162 140.581 71.7162 140.944V144.248H70.7703V143.567H70.7315C70.6688 143.693 70.5749 143.816 70.4496 143.937C70.3244 144.058 70.1635 144.158 69.967 144.238C69.7705 144.318 69.5351 144.358 69.2608 144.358ZM69.4714 143.58C69.7391 143.58 69.9681 143.527 70.1581 143.422C70.3503 143.316 70.4961 143.178 70.5954 143.007C70.6969 142.834 70.7477 142.65 70.7477 142.453V141.812C70.7131 141.846 70.6462 141.879 70.5468 141.909C70.4496 141.937 70.3384 141.962 70.2132 141.983C70.0879 142.003 69.9659 142.021 69.8471 142.038C69.7283 142.054 69.629 142.067 69.5491 142.077C69.3612 142.101 69.1895 142.141 69.0341 142.197C68.8807 142.253 68.7576 142.334 68.6648 142.44C68.5741 142.544 68.5287 142.682 68.5287 142.855C68.5287 143.094 68.6173 143.276 68.7943 143.399C68.9714 143.52 69.1971 143.58 69.4714 143.58ZM75.0924 146.217C74.6972 146.217 74.3571 146.165 74.072 146.062C73.7891 145.958 73.5581 145.821 73.3788 145.65C73.1996 145.48 73.0657 145.293 72.9771 145.09L73.8097 144.747C73.868 144.842 73.9457 144.942 74.0429 145.048C74.1422 145.156 74.2761 145.248 74.4446 145.323C74.6152 145.399 74.8344 145.437 75.1021 145.437C75.4693 145.437 75.7727 145.347 76.0124 145.168C76.2521 144.991 76.372 144.708 76.372 144.319V143.341H76.3104C76.2521 143.446 76.1679 143.564 76.0578 143.694C75.9498 143.823 75.8008 143.936 75.6107 144.031C75.4207 144.126 75.1734 144.173 74.8689 144.173C74.4759 144.173 74.1217 144.081 73.8064 143.898C73.4933 143.712 73.2449 143.439 73.0614 143.078C72.88 142.715 72.7893 142.27 72.7893 141.74C72.7893 141.211 72.8789 140.758 73.0581 140.38C73.2395 140.002 73.4879 139.713 73.8032 139.512C74.1185 139.309 74.4759 139.207 74.8754 139.207C75.1842 139.207 75.4336 139.259 75.6237 139.363C75.8137 139.464 75.9617 139.583 76.0675 139.719C76.1754 139.855 76.2586 139.975 76.3169 140.079H76.3882V139.272H77.3373V144.358C77.3373 144.785 77.238 145.136 77.0393 145.411C76.8406 145.685 76.5717 145.888 76.2327 146.02C75.8958 146.151 75.5157 146.217 75.0924 146.217ZM75.0827 143.37C75.3613 143.37 75.5967 143.305 75.7889 143.175C75.9832 143.044 76.1301 142.856 76.2294 142.612C76.3309 142.366 76.3817 142.071 76.3817 141.727C76.3817 141.393 76.332 141.098 76.2327 140.843C76.1333 140.588 75.9876 140.39 75.7954 140.247C75.6032 140.102 75.3656 140.03 75.0827 140.03C74.7912 140.03 74.5482 140.106 74.3539 140.257C74.1595 140.406 74.0126 140.609 73.9133 140.866C73.8161 141.123 73.7675 141.41 73.7675 141.727C73.7675 142.054 73.8172 142.34 73.9165 142.586C74.0159 142.832 74.1627 143.024 74.3571 143.163C74.5536 143.301 74.7955 143.37 75.0827 143.37ZM80.7807 144.348C80.2905 144.348 79.8683 144.243 79.5141 144.034C79.1621 143.822 78.89 143.525 78.6978 143.143C78.5078 142.759 78.4128 142.308 78.4128 141.792C78.4128 141.283 78.5078 140.833 78.6978 140.445C78.89 140.056 79.1578 139.753 79.5012 139.534C79.8467 139.316 80.2505 139.207 80.7127 139.207C80.9934 139.207 81.2655 139.254 81.529 139.347C81.7925 139.439 82.0289 139.585 82.2384 139.784C82.4479 139.983 82.6131 140.241 82.734 140.558C82.855 140.873 82.9154 141.257 82.9154 141.708V142.051H78.9602V141.326H81.9663C81.9663 141.071 81.9145 140.845 81.8108 140.649C81.7072 140.45 81.5614 140.294 81.3735 140.179C81.1878 140.065 80.9697 140.007 80.7192 140.007C80.4471 140.007 80.2095 140.074 80.0065 140.208C79.8057 140.34 79.6502 140.513 79.54 140.727C79.4321 140.938 79.3781 141.168 79.3781 141.416V141.983C79.3781 142.316 79.4364 142.599 79.553 142.832C79.6718 143.065 79.837 143.243 80.0486 143.367C80.2603 143.488 80.5075 143.548 80.7904 143.548C80.974 143.548 81.1414 143.522 81.2925 143.47C81.4437 143.416 81.5743 143.336 81.6845 143.231C81.7946 143.125 81.8788 142.994 81.9372 142.839L82.8539 143.004C82.7805 143.274 82.6487 143.51 82.4587 143.713C82.2708 143.914 82.0343 144.071 81.7493 144.183C81.4664 144.293 81.1435 144.348 80.7807 144.348ZM83.9901 144.248V139.272H84.9198V140.082H84.9813C85.085 139.808 85.2545 139.594 85.4899 139.441C85.7253 139.285 86.0071 139.207 86.3354 139.207C86.6679 139.207 86.9465 139.285 87.1711 139.441C87.3979 139.596 87.5652 139.81 87.6732 140.082H87.725C87.8438 139.816 88.0328 139.605 88.2919 139.447C88.5511 139.287 88.8599 139.207 89.2184 139.207C89.6697 139.207 90.0379 139.349 90.323 139.632C90.6102 139.915 90.7538 140.341 90.7538 140.911V144.248H89.7853V141.002C89.7853 140.665 89.6935 140.421 89.5099 140.27C89.3264 140.119 89.1072 140.043 88.8523 140.043C88.537 140.043 88.2919 140.14 88.117 140.335C87.9421 140.527 87.8546 140.774 87.8546 141.076V144.248H86.8893V140.94C86.8893 140.67 86.8051 140.453 86.6366 140.289C86.4682 140.125 86.249 140.043 85.979 140.043C85.7955 140.043 85.6259 140.092 85.4705 140.189C85.3171 140.284 85.193 140.417 85.0979 140.587C85.0051 140.758 84.9586 140.955 84.9586 141.18V144.248H83.9901ZM94.1964 144.348C93.7062 144.348 93.284 144.243 92.9299 144.034C92.5778 143.822 92.3057 143.525 92.1135 143.143C91.9235 142.759 91.8285 142.308 91.8285 141.792C91.8285 141.283 91.9235 140.833 92.1135 140.445C92.3057 140.056 92.5735 139.753 92.9169 139.534C93.2624 139.316 93.6663 139.207 94.1284 139.207C94.4092 139.207 94.6813 139.254 94.9447 139.347C95.2082 139.439 95.4447 139.585 95.6541 139.784C95.8636 139.983 96.0288 140.241 96.1498 140.558C96.2707 140.873 96.3312 141.257 96.3312 141.708V142.051H92.3759V141.326H95.382C95.382 141.071 95.3302 140.845 95.2265 140.649C95.1229 140.45 94.9771 140.294 94.7892 140.179C94.6035 140.065 94.3854 140.007 94.1349 140.007C93.8628 140.007 93.6252 140.074 93.4222 140.208C93.2214 140.34 93.0659 140.513 92.9558 140.727C92.8478 140.938 92.7938 141.168 92.7938 141.416V141.983C92.7938 142.316 92.8521 142.599 92.9687 142.832C93.0875 143.065 93.2527 143.243 93.4643 143.367C93.676 143.488 93.9233 143.548 94.2062 143.548C94.3897 143.548 94.5571 143.522 94.7083 143.47C94.8594 143.416 94.9901 143.336 95.1002 143.231C95.2104 143.125 95.2946 142.994 95.3529 142.839L96.2696 143.004C96.1962 143.274 96.0645 143.51 95.8744 143.713C95.6865 143.914 95.4501 144.071 95.165 144.183C94.8821 144.293 94.5592 144.348 94.1964 144.348ZM98.3744 141.293V144.248H97.4058V139.272H98.3355V140.082H98.3971C98.5115 139.818 98.6908 139.607 98.9348 139.447C99.181 139.287 99.4909 139.207 99.8645 139.207C100.204 139.207 100.5 139.279 100.755 139.421C101.01 139.561 101.208 139.771 101.348 140.049C101.488 140.328 101.559 140.673 101.559 141.083V144.248H100.59V141.199C100.59 140.839 100.496 140.557 100.308 140.354C100.12 140.149 99.8623 140.046 99.5341 140.046C99.3095 140.046 99.1097 140.095 98.9348 140.192C98.762 140.289 98.6249 140.432 98.5234 140.62C98.424 140.805 98.3744 141.03 98.3744 141.293ZM105.18 139.272V140.049H102.462V139.272H105.18ZM103.191 138.08H104.16V142.787C104.16 142.975 104.188 143.116 104.244 143.211C104.3 143.304 104.373 143.368 104.461 143.402C104.552 143.435 104.65 143.451 104.756 143.451C104.834 143.451 104.902 143.445 104.96 143.435C105.018 143.424 105.064 143.415 105.096 143.409L105.271 144.209C105.215 144.23 105.135 144.252 105.031 144.274C104.928 144.297 104.798 144.31 104.642 144.312C104.388 144.317 104.15 144.271 103.93 144.176C103.71 144.081 103.531 143.935 103.395 143.736C103.259 143.537 103.191 143.288 103.191 142.988V138.08ZM112.362 139.356C112.327 139.05 112.185 138.812 111.934 138.644C111.684 138.473 111.368 138.388 110.988 138.388C110.716 138.388 110.481 138.431 110.282 138.517C110.084 138.602 109.929 138.718 109.819 138.867C109.711 139.014 109.657 139.181 109.657 139.369C109.657 139.527 109.694 139.663 109.767 139.777C109.843 139.892 109.941 139.988 110.062 140.066C110.185 140.141 110.317 140.205 110.457 140.257C110.597 140.306 110.732 140.348 110.862 140.38L111.51 140.548C111.722 140.6 111.939 140.67 112.161 140.759C112.383 140.847 112.59 140.964 112.78 141.109C112.97 141.253 113.123 141.433 113.24 141.646C113.358 141.86 113.418 142.116 113.418 142.414C113.418 142.79 113.321 143.124 113.126 143.415C112.934 143.707 112.654 143.937 112.287 144.105C111.922 144.274 111.481 144.358 110.962 144.358C110.466 144.358 110.036 144.279 109.673 144.121C109.31 143.964 109.026 143.74 108.821 143.451C108.616 143.159 108.503 142.814 108.481 142.414H109.485C109.505 142.654 109.582 142.854 109.719 143.013C109.857 143.171 110.033 143.289 110.247 143.367C110.463 143.442 110.699 143.48 110.956 143.48C111.239 143.48 111.49 143.436 111.711 143.347C111.933 143.256 112.108 143.131 112.236 142.971C112.363 142.809 112.427 142.62 112.427 142.404C112.427 142.208 112.37 142.047 112.258 141.922C112.148 141.797 111.998 141.693 111.808 141.611C111.62 141.529 111.407 141.456 111.17 141.394L110.386 141.18C109.855 141.035 109.433 140.823 109.123 140.542C108.814 140.261 108.659 139.89 108.659 139.428C108.659 139.045 108.763 138.712 108.97 138.427C109.178 138.142 109.458 137.92 109.812 137.763C110.167 137.603 110.566 137.523 111.011 137.523C111.46 137.523 111.857 137.602 112.2 137.759C112.545 137.917 112.818 138.134 113.016 138.41C113.215 138.685 113.319 139 113.327 139.356H112.362ZM115.148 146.114C115.004 146.114 114.872 146.102 114.753 146.078C114.635 146.056 114.546 146.033 114.488 146.007L114.721 145.213C114.898 145.261 115.056 145.281 115.194 145.275C115.332 145.268 115.454 145.216 115.56 145.119C115.668 145.022 115.763 144.863 115.845 144.643L115.965 144.312L114.144 139.272H115.181L116.441 143.133H116.493L117.753 139.272H118.793L116.742 144.912C116.647 145.171 116.526 145.39 116.379 145.569C116.233 145.751 116.058 145.887 115.855 145.977C115.652 146.068 115.416 146.114 115.148 146.114ZM123.431 140.487L122.554 140.642C122.517 140.53 122.459 140.423 122.379 140.322C122.301 140.22 122.195 140.137 122.061 140.072C121.927 140.007 121.76 139.975 121.559 139.975C121.285 139.975 121.056 140.037 120.872 140.16C120.689 140.281 120.597 140.437 120.597 140.629C120.597 140.796 120.659 140.93 120.782 141.031C120.905 141.133 121.103 141.216 121.378 141.28L122.168 141.462C122.626 141.568 122.967 141.731 123.192 141.951C123.416 142.171 123.529 142.457 123.529 142.809C123.529 143.107 123.442 143.373 123.27 143.606C123.099 143.837 122.86 144.019 122.554 144.151C122.249 144.282 121.896 144.348 121.494 144.348C120.937 144.348 120.483 144.229 120.131 143.992C119.779 143.752 119.563 143.412 119.483 142.971L120.419 142.829C120.477 143.073 120.597 143.258 120.778 143.383C120.96 143.506 121.196 143.567 121.488 143.567C121.805 143.567 122.059 143.502 122.249 143.37C122.439 143.236 122.534 143.073 122.534 142.881C122.534 142.725 122.476 142.595 122.359 142.489C122.245 142.383 122.069 142.303 121.831 142.249L120.989 142.064C120.525 141.959 120.181 141.79 119.959 141.559C119.739 141.328 119.628 141.035 119.628 140.681C119.628 140.387 119.711 140.13 119.875 139.91C120.039 139.69 120.266 139.518 120.555 139.395C120.844 139.27 121.176 139.207 121.549 139.207C122.087 139.207 122.51 139.324 122.819 139.557C123.128 139.788 123.332 140.098 123.431 140.487ZM126.916 139.272V140.049H124.198V139.272H126.916ZM124.927 138.08H125.896V142.787C125.896 142.975 125.924 143.116 125.98 143.211C126.036 143.304 126.109 143.368 126.197 143.402C126.288 143.435 126.386 143.451 126.492 143.451C126.57 143.451 126.638 143.445 126.696 143.435C126.754 143.424 126.8 143.415 126.832 143.409L127.007 144.209C126.951 144.23 126.871 144.252 126.767 144.274C126.664 144.297 126.534 144.31 126.378 144.312C126.124 144.317 125.886 144.271 125.666 144.176C125.446 144.081 125.267 143.935 125.131 143.736C124.995 143.537 124.927 143.288 124.927 142.988V138.08ZM130.079 144.348C129.588 144.348 129.166 144.243 128.812 144.034C128.46 143.822 128.188 143.525 127.996 143.143C127.806 142.759 127.711 142.308 127.711 141.792C127.711 141.283 127.806 140.833 127.996 140.445C128.188 140.056 128.456 139.753 128.799 139.534C129.145 139.316 129.548 139.207 130.011 139.207C130.291 139.207 130.563 139.254 130.827 139.347C131.09 139.439 131.327 139.585 131.536 139.784C131.746 139.983 131.911 140.241 132.032 140.558C132.153 140.873 132.213 141.257 132.213 141.708V142.051H128.258V141.326H131.264C131.264 141.071 131.212 140.845 131.109 140.649C131.005 140.45 130.859 140.294 130.671 140.179C130.486 140.065 130.268 140.007 130.017 140.007C129.745 140.007 129.507 140.074 129.304 140.208C129.104 140.34 128.948 140.513 128.838 140.727C128.73 140.938 128.676 141.168 128.676 141.416V141.983C128.676 142.316 128.734 142.599 128.851 142.832C128.97 143.065 129.135 143.243 129.347 143.367C129.558 143.488 129.805 143.548 130.088 143.548C130.272 143.548 130.439 143.522 130.59 143.47C130.742 143.416 130.872 143.336 130.982 143.231C131.093 143.125 131.177 142.994 131.235 142.839L132.152 143.004C132.078 143.274 131.947 143.51 131.757 143.713C131.569 143.914 131.332 144.071 131.047 144.183C130.764 144.293 130.441 144.348 130.079 144.348ZM133.288 144.248V139.272H134.218V140.082H134.279C134.383 139.808 134.552 139.594 134.788 139.441C135.023 139.285 135.305 139.207 135.633 139.207C135.966 139.207 136.244 139.285 136.469 139.441C136.696 139.596 136.863 139.81 136.971 140.082H137.023C137.142 139.816 137.331 139.605 137.59 139.447C137.849 139.287 138.158 139.207 138.516 139.207C138.968 139.207 139.336 139.349 139.621 139.632C139.908 139.915 140.052 140.341 140.052 140.911V144.248H139.083V141.002C139.083 140.665 138.991 140.421 138.808 140.27C138.624 140.119 138.405 140.043 138.15 140.043C137.835 140.043 137.59 140.14 137.415 140.335C137.24 140.527 137.153 140.774 137.153 141.076V144.248H136.187V140.94C136.187 140.67 136.103 140.453 135.935 140.289C135.766 140.125 135.547 140.043 135.277 140.043C135.093 140.043 134.924 140.092 134.768 140.189C134.615 140.284 134.491 140.417 134.396 140.587C134.303 140.758 134.257 140.955 134.257 141.18V144.248H133.288Z" fill="white"/>
</svg>
